<svg xmlns="http://www.w3.org/2000/svg" width="10" height="17" viewBox="0 0 10 17" fill="#414141">
    <path d="M9.32422 8.19937C9.32422 7.88592 9.20503 7.61856 8.95747 7.37886L1.80586 0.344577C1.61331 0.141753 1.35659 0.0403416 1.06319 0.0403416C0.467222 0.0403416 -0.000383898 0.501304 -0.000383951 1.10977C-0.000383977 1.40479 0.11881 1.67215 0.320522 1.87497L6.76614 8.19937L0.320521 14.5238C0.118809 14.7358 -0.000385166 15.0032 -0.000385192 15.2982C-0.000385244 15.8974 0.46722 16.3584 1.06319 16.3584C1.35659 16.3584 1.61331 16.257 1.80586 16.0542L8.95747 9.01988C9.20503 8.78018 9.31505 8.51282 9.32422 8.19937Z"
          fill="current"/>
</svg>