<svg xmlns="http://www.w3.org/2000/svg" width="18" height="12" viewBox="0 0 18 12" fill="#0e1625" class="open-menu_icon">
    <path d="M17 10H1.00001C0.447719 10 0 10.4477 0 11C0 11.5523 0.447719 12 1.00001 12H17C17.5523 12 18 11.5523 18 11C18 10.4477 17.5523 10 17 10Z" fill="#3983FF">

    </path>
    <path d="M11 5H1.00001C0.447719 5 0 5.44772 0 6.00001C0 6.5523 0.447719 7.00002 1.00001 7.00002H11C11.5523 7.00002 12 6.5523 12 6.00001C12 5.44772 11.5523 5 11 5Z" fill="#3983FF">

    </path>
    <path d="M17 0H1C0.447717 0 0 0.447717 0 1C0 1.55229 0.447717 2.00001 1 2.00001H17C17.5523 2.00001 18 1.55229 18 1C18 0.447717 17.5523 0 17 0Z" fill="#3983FF">

    </path>
</svg>